<svg width="65" height="65" viewBox="0 0 65 65" fill="none" xmlns="http://www.w3.org/2000/svg">
<rect width="65" height="65" rx="32.5" fill="white"/>
<path d="M35.5187 49.7418V31.0843C35.5187 27.9568 35.5009 25.9077 35.4652 24.937C35.3938 23.4631 35.1974 22.4026 34.8761 21.7556C34.5548 21.0725 34.0372 20.6591 33.3232 20.5153C32.6093 20.4075 31.5919 20.3536 30.271 20.3536C28.736 20.3536 27.7364 20.4255 27.2724 20.5692V12.1572C27.5936 12.1212 28.0756 12.1033 28.7181 12.1033H30.271C34.2693 12.1033 37.3572 12.4268 39.5348 13.0739C41.7481 13.685 43.3545 14.7096 44.3541 16.1475C45.2822 17.4776 45.8534 19.2212 46.0676 21.3781C46.3175 23.535 46.4424 26.7704 46.4424 31.0843C46.4424 35.0027 46.2818 38.0944 45.9605 40.3591C45.6749 42.588 44.9967 44.4393 43.9257 45.9132L50.994 55.5116V55.8352H38.9993L35.5187 49.7418ZM30.271 50.0653C25.059 50.0653 21.3107 49.4902 19.026 48.3398C17.848 47.7646 16.9198 46.9917 16.2415 46.0211C15.5632 45.0505 15.0635 43.8462 14.7422 42.4082C14.4566 41.15 14.2781 39.7121 14.2067 38.0944C14.1353 36.4407 14.0996 34.104 14.0996 31.0843C14.0996 27.3097 14.171 24.4158 14.3138 22.4026C14.4923 20.3895 14.9028 18.6999 15.5454 17.3338C16.2594 15.8599 17.3482 14.7275 18.8118 13.9367C20.2754 13.1458 22.346 12.6066 25.0233 12.319V31.0843C25.0233 33.2053 25.059 35.2364 25.1304 37.1777C25.2018 38.6516 25.3803 39.73 25.6659 40.4131C25.9872 41.0961 26.5048 41.4915 27.2188 41.5994C27.8257 41.7432 28.8431 41.8151 30.271 41.8151C31.7347 41.8151 32.7342 41.7611 33.2697 41.6533V49.9575C31.9132 50.0294 30.9136 50.0653 30.271 50.0653Z" fill="#313334"/>
</svg>
