<svg width="66" height="66" viewBox="0 0 66 66" fill="none" xmlns="http://www.w3.org/2000/svg">
<rect x="0.25" y="0.5" width="65" height="65" rx="32.5" fill="white"/>
<g clip-path="url(#clip0)">
<path d="M36.4621 15.1071C35.1261 15.2429 33.4301 15.6424 32.102 16.1298C31.334 16.4095 29.51 17.2645 29.142 17.5202C29.03 17.5921 28.67 17.8238 28.3419 18.0395C26.582 19.1821 24.1019 21.6192 23.8539 22.4582C23.6779 23.0574 24.1259 23.6647 24.7499 23.6647C24.87 23.6647 25.3979 23.3691 26.1019 22.8896C27.446 21.9947 27.9899 21.747 28.79 21.6911C30.926 21.5313 31.958 23.6727 30.598 25.4625C30.222 25.9579 29.694 26.3814 28.246 27.3562C26.7019 28.3949 24.438 29.9291 23.2218 30.7601C20.6779 32.494 17.1098 34.8831 15.1258 36.1696C13.6697 37.1204 13.3257 37.5119 13.1497 38.4708C12.9417 39.5814 13.5497 40.7001 14.5897 41.1395C15.3178 41.4512 16.2218 41.3073 17.0378 40.764C17.3098 40.5882 17.5418 40.4444 17.5738 40.4444C17.5978 40.4444 17.9018 40.2366 18.2459 39.981C18.5818 39.7332 19.6538 38.9901 20.6219 38.3429C21.5899 37.6878 22.8299 36.8487 23.3819 36.4732C26.446 34.3637 29.0539 32.6538 29.398 32.526C30.566 32.0785 31.83 32.6059 32.47 33.8124C32.582 34.0202 32.6221 34.2599 32.6221 34.7713C32.6221 35.9618 32.294 36.3693 30.182 37.7916C29.542 38.223 27.654 39.4935 25.9819 40.6121C24.3099 41.7308 22.4939 42.9614 21.9418 43.3369C21.3899 43.7045 20.7818 44.1039 20.5818 44.2078C20.3899 44.3117 20.1498 44.4556 20.0618 44.5355C19.9739 44.6074 19.7419 44.7831 19.5419 44.9349C18.5178 45.702 18.2298 47.1243 18.8698 48.2509C19.0618 48.5865 19.4778 48.954 19.9019 49.1778C20.2619 49.3616 20.9898 49.4255 21.4539 49.3136C21.8459 49.2258 22.8379 48.6424 23.8139 47.9393C24.7339 47.2761 26.782 45.8778 32.454 42.0584C33.7181 41.2034 34.9341 40.4364 35.1501 40.3565C36.3101 39.9171 37.5821 40.4284 38.1981 41.587C38.3501 41.8587 38.3822 42.0504 38.3822 42.6018C38.3822 43.7924 37.8915 43.9873 36.0701 45.5102C33.8543 47.363 33.8543 47.363 32.6992 48.3737C32.1216 48.855 32.1216 48.855 31.7366 49.24C31.4758 49.5009 31.7366 49.6732 31.7366 49.6732C31.7366 49.6732 32.3623 49.9138 32.8461 50.1127C33.1323 50.2026 33.5655 50.347 33.7821 50.3923C35.1919 50.6879 37.9341 51.0555 39.7821 50.9037C41.5902 50.7519 43.6782 50.2565 45.0622 49.6572C45.2143 49.5933 45.4303 49.4974 45.5422 49.4574C45.6543 49.4095 45.7983 49.3456 45.8623 49.3136C45.9263 49.2737 46.3103 49.0819 46.7023 48.8821C49.7983 47.316 52.5024 44.5914 54.2224 41.3073C55.0544 39.7092 55.5024 38.4468 55.9504 36.4492C56.2624 35.011 56.3344 31.8228 56.0784 30.2567C55.8865 29.0741 55.3825 27.1645 55.0624 26.4214C53.9744 23.8645 52.9424 22.2744 51.2144 20.4926C48.9104 18.1194 46.2943 16.5853 42.8623 15.6025C41.7742 15.2909 40.2702 15.0991 38.7021 15.0751C37.8222 15.0591 36.8142 15.0751 36.4621 15.1071ZM42.2622 36.5771C43.3982 37.1923 43.8542 38.6466 43.2702 39.7891C42.5342 41.2354 40.5741 41.5631 39.4381 40.4284C38.9102 39.901 38.7101 39.4296 38.7021 38.7265C38.7021 38.0313 38.9582 37.448 39.4702 36.9447C39.9582 36.4652 40.4702 36.2814 41.2221 36.3134C41.7102 36.3374 41.9102 36.3853 42.2622 36.5771Z" fill="#2C3031"/>
<path d="M10.3342 44.419C11.6234 44.419 12.6684 43.3739 12.6684 42.0848C12.6684 40.7956 11.6234 39.7505 10.3342 39.7505C9.04507 39.7505 8 40.7956 8 42.0848C8 43.3739 9.04507 44.419 10.3342 44.419Z" fill="#2C3031"/>
</g>
<defs>
<clipPath id="clip0">
<rect width="48.3209" height="36" fill="white" transform="translate(8 15)"/>
</clipPath>
</defs>
</svg>
