<svg width="502" height="374" viewBox="0 0 502 374" fill="none" xmlns="http://www.w3.org/2000/svg">
<path d="M295.69 1.11282C281.81 2.524 264.19 6.67455 250.393 11.7382C242.414 14.6436 223.465 23.5257 219.642 26.182C218.478 26.9291 214.738 29.3364 211.33 31.5777C193.046 43.4482 167.281 68.7664 164.704 77.4825C162.876 83.7083 167.53 90.0171 174.013 90.0171C175.26 90.0171 180.745 86.9457 188.059 81.9651C202.022 72.6679 207.673 70.0946 215.985 69.5135C238.176 67.8533 248.897 90.1001 234.768 108.694C230.862 113.841 225.376 118.241 210.333 128.368C194.292 139.159 170.772 155.097 158.138 163.73C131.709 181.744 94.6406 206.564 74.0287 219.929C58.9022 229.807 55.3284 233.874 53.4999 243.836C51.339 255.374 57.6555 266.996 68.4601 271.561C76.0234 274.799 85.4151 273.304 93.8925 267.66C96.7184 265.833 99.1286 264.339 99.4611 264.339C99.7104 264.339 102.869 262.181 106.443 259.525C109.933 256.951 121.07 249.231 131.127 242.507C141.184 235.701 154.066 226.984 159.801 223.083C191.633 201.168 218.727 183.404 222.301 182.076C234.436 177.427 247.567 182.906 254.216 195.44C255.38 197.599 255.796 200.089 255.796 205.402C255.796 217.77 252.388 222.004 230.446 236.78C223.797 241.262 204.183 254.461 186.812 266.082C169.442 277.704 150.575 290.488 144.84 294.389C139.106 298.208 132.789 302.358 130.711 303.437C128.717 304.516 126.223 306.011 125.309 306.841C124.395 307.588 121.985 309.414 119.907 310.991C109.268 318.96 106.276 333.736 112.925 345.44C114.92 348.927 119.242 352.745 123.647 355.07C127.387 356.979 134.95 357.643 139.771 356.481C143.843 355.568 154.149 349.508 164.289 342.203C173.847 335.313 195.124 320.786 254.05 281.107C267.182 272.225 279.815 264.256 282.059 263.426C294.11 258.861 307.325 264.173 313.725 276.21C315.304 279.032 315.637 281.024 315.637 286.752C315.637 299.121 310.539 301.146 291.617 316.968C268.597 336.216 268.597 336.216 256.597 346.716C250.597 351.716 250.597 351.716 246.597 355.716C243.887 358.426 246.597 360.216 246.597 360.216C246.597 360.216 253.097 362.716 258.123 364.782C261.097 365.716 265.597 367.216 267.847 367.687C282.494 370.758 310.982 374.577 330.181 373C348.965 371.423 370.657 366.276 385.035 360.05C386.615 359.386 388.859 358.39 390.022 357.975C391.186 357.477 392.682 356.813 393.347 356.481C394.012 356.066 398.001 354.074 402.074 351.998C434.238 335.728 462.33 307.422 480.199 273.304C488.843 256.702 493.497 243.587 498.151 222.834C501.393 207.892 502.141 174.771 499.481 158.501C497.487 146.215 492.251 126.376 488.926 118.656C477.623 92.0923 466.901 75.5733 448.949 57.062C425.013 32.4078 397.835 16.4698 362.18 6.25949C350.876 3.02208 335.251 1.02982 318.961 0.780792C309.819 0.614771 299.347 0.780781 295.69 1.11282ZM355.946 224.162C367.748 230.554 372.485 245.662 366.418 257.532C358.772 272.557 338.409 275.961 326.607 264.173C321.122 258.694 319.044 253.797 318.961 246.492C318.961 239.27 321.621 233.21 326.94 227.981C332.01 223 337.329 221.091 345.141 221.423C350.211 221.672 352.289 222.17 355.946 224.162Z" fill="white"/>
<ellipse cx="24.25" cy="281.38" rx="24.25" ry="24.2504" fill="white"/>
</svg>
