<svg width="79" height="72" viewBox="0 0 79 93" fill="none" xmlns="http://www.w3.org/2000/svg">
<path d="M45.8636 80.0419V40.365C45.8636 33.7139 45.8254 29.3564 45.7489 27.2922C45.5961 24.1579 45.1756 21.9026 44.4877 20.5265C43.7997 19.074 42.6913 18.1949 41.1626 17.889C39.6338 17.6597 37.4553 17.545 34.627 17.545C31.3401 17.545 29.1998 17.6979 28.2061 18.0037V0.114672C28.894 0.0382241 29.926 0 31.3019 0H34.627C43.1882 0 49.8002 0.688044 54.463 2.06412C59.2022 3.36375 62.642 5.54254 64.7823 8.60049C66.7697 11.4291 67.9927 15.1369 68.4514 19.7238C68.9865 24.3107 69.254 31.1911 69.254 40.365C69.254 48.6979 68.91 55.2725 68.2221 60.0888C67.6106 64.8286 66.1582 68.7658 63.865 71.9001L79 92.312V93H53.3164L45.8636 80.0419ZM34.627 80.73C23.4669 80.73 15.4408 79.5067 10.5486 77.0604C8.02613 75.8372 6.03871 74.1936 4.58636 72.1295C3.13401 70.0654 2.06386 67.5044 1.37591 64.4464C0.764396 61.7707 0.382197 58.7127 0.229318 55.2725C0.0764396 51.7558 0 46.7867 0 40.365C0 32.3379 0.152879 26.1837 0.458636 21.9026C0.840829 17.6215 1.71988 14.0283 3.09579 11.1233C4.62457 7.9889 6.95598 5.58076 10.09 3.89888C13.224 2.21702 17.6575 1.07029 23.3904 0.458698V40.365C23.3904 44.8754 23.4669 49.1948 23.6197 53.3231C23.7726 56.4574 24.1548 58.7509 24.7663 60.2035C25.4543 61.656 26.5627 62.4969 28.0914 62.7263C29.3909 63.0321 31.5694 63.185 34.627 63.185C37.761 63.185 39.9013 63.0703 41.0479 62.8409V80.5006C38.1432 80.6535 36.0029 80.73 34.627 80.73Z" fill="#ffffff"/>
</svg>
