<svg width="113" height="106" viewBox="0 0 113 106" fill="none" xmlns="http://www.w3.org/2000/svg">
<path d="M27.531 19.197C28.005 19.9343 28.9793 21.3563 30.454 23.463C31.9813 25.517 33.7193 27.9133 35.668 30.652C37.6693 33.3907 39.776 36.3137 41.988 39.421C44.2 42.4757 46.2803 45.3723 48.229 48.111C50.1777 50.797 51.863 53.1407 53.285 55.142C54.7597 57.1433 55.734 58.46 56.208 59.092C56.366 58.8287 56.8663 58.1177 57.709 56.959C58.5517 55.8003 59.5787 54.352 60.79 52.614C62.054 50.876 63.476 48.9273 65.056 46.768C66.636 44.556 68.2423 42.3177 69.875 40.053C71.5603 37.7357 73.193 35.4447 74.773 33.18C76.4057 30.9153 77.9067 28.8613 79.276 27.018C80.6453 25.122 81.804 23.4893 82.752 22.12C83.7527 20.698 84.4637 19.7237 84.885 19.197V79H75.721V46.926C75.721 46.5047 75.7473 46.057 75.8 45.583C75.9053 45.109 75.958 44.7667 75.958 44.556C75.484 45.188 74.7203 46.2677 73.667 47.795C72.6663 49.2697 71.4813 50.9813 70.112 52.93C68.7953 54.826 67.3997 56.8537 65.925 59.013C64.4503 61.1197 63.0547 63.121 61.738 65.017C60.4213 66.913 59.2627 68.5983 58.262 70.073C57.2613 71.495 56.5767 72.4957 56.208 73.075C55.8393 72.601 55.102 71.6267 53.996 70.152C52.9427 68.6247 51.6787 66.8603 50.204 64.859C48.782 62.8577 47.2547 60.7247 45.622 58.46C44.042 56.1953 42.5673 54.0887 41.198 52.14C39.8287 50.1913 38.6437 48.5323 37.643 47.163C36.6423 45.741 36.063 44.872 35.905 44.556C35.905 44.7667 35.9313 45.109 35.984 45.583C36.0893 46.057 36.142 46.5047 36.142 46.926V79H27.531V19.197Z" fill="white"/>
<path d="M27.531 19.197L30.0545 17.5747L24.531 8.98256V19.197H27.531ZM30.454 23.463L27.9963 25.1834L28.021 25.2186L28.0466 25.2531L30.454 23.463ZM35.668 30.652L33.2236 32.3913L33.2346 32.4067L33.2458 32.422L35.668 30.652ZM41.988 39.421L39.544 41.1608L39.5511 41.1707L39.5582 41.1805L41.988 39.421ZM48.229 48.111L45.7846 49.8503L45.7926 49.8615L45.8007 49.8727L48.229 48.111ZM53.285 55.142L50.8395 56.8796L50.8545 56.9007L50.8698 56.9216L53.285 55.142ZM56.208 59.092L53.808 60.892L56.485 64.4613L58.7805 60.6355L56.208 59.092ZM60.79 52.614L58.3638 50.8495L58.3461 50.8739L58.3288 50.8986L60.79 52.614ZM65.056 46.768L67.4771 48.5395L67.4872 48.5257L67.4972 48.5117L65.056 46.768ZM69.875 40.053L67.4488 38.2885L67.4415 38.2986L69.875 40.053ZM74.773 33.18L72.3395 31.4256L72.3259 31.4444L72.3126 31.4635L74.773 33.18ZM79.276 27.018L81.6842 28.807L81.6962 28.7908L81.708 28.7745L79.276 27.018ZM82.752 22.12L80.2986 20.3935L80.292 20.4029L80.2854 20.4124L82.752 22.12ZM84.885 19.197H87.885V10.6447L82.5424 17.3229L84.885 19.197ZM84.885 79V82H87.885V79H84.885ZM75.721 79H72.721V82H75.721V79ZM75.8 45.583L72.8714 44.9322L72.8363 45.0905L72.8184 45.2517L75.8 45.583ZM75.958 44.556H78.958V35.556L73.558 42.756L75.958 44.556ZM73.667 47.795L71.1974 46.0918L71.1909 46.1011L71.1846 46.1105L73.667 47.795ZM70.112 52.93L67.6574 51.2052L67.6526 51.212L67.6479 51.2188L70.112 52.93ZM65.925 59.013L68.3827 60.7334L68.3926 60.7192L68.4024 60.7049L65.925 59.013ZM61.738 65.017L59.2739 63.3058L59.2739 63.3058L61.738 65.017ZM58.262 70.073L60.7154 71.7995L60.7301 71.7786L60.7444 71.7575L58.262 70.073ZM56.208 73.075L53.8399 74.9168L56.4535 78.2771L58.739 74.6856L56.208 73.075ZM53.996 70.152L51.5264 71.8552L51.5602 71.9043L51.596 71.952L53.996 70.152ZM50.204 64.859L47.7585 66.5966L47.7735 66.6177L47.7888 66.6386L50.204 64.859ZM45.622 58.46L43.1616 60.1765L43.1749 60.1956L43.1885 60.2144L45.622 58.46ZM41.198 52.14L43.6526 50.4152L43.6526 50.4152L41.198 52.14ZM37.643 47.163L35.1896 48.8895L35.205 48.9114L35.2208 48.933L37.643 47.163ZM35.905 44.556L38.5883 43.2144L32.905 44.556H35.905ZM35.984 45.583L33.0023 45.9143L33.0203 46.0755L33.0554 46.2338L35.984 45.583ZM36.142 79V82H39.142V79H36.142ZM27.531 79H24.531V82H27.531V79ZM25.0075 20.8193C25.5186 21.6143 26.5267 23.084 27.9963 25.1834L32.9117 21.7426C31.4319 19.6287 30.4914 18.2543 30.0545 17.5747L25.0075 20.8193ZM28.0466 25.2531C29.5583 27.286 31.2836 29.6647 33.2236 32.3913L38.1124 28.9127C36.1551 26.1619 34.4044 23.748 32.8614 21.6729L28.0466 25.2531ZM33.2458 32.422C35.239 35.1495 37.3383 38.0624 39.544 41.1608L44.432 37.6812C42.2137 34.565 40.0997 31.6318 38.0902 28.8819L33.2458 32.422ZM39.5582 41.1805C41.7659 44.2293 43.8413 47.1191 45.7846 49.8503L50.6734 46.3717C48.7193 43.6255 46.6341 40.7221 44.4178 37.6615L39.5582 41.1805ZM45.8007 49.8727C47.7455 52.5533 49.4248 54.8886 50.8395 56.8796L55.7305 53.4044C54.3012 51.3928 52.6099 49.0407 50.6573 46.3493L45.8007 49.8727ZM50.8698 56.9216C52.343 58.9209 53.325 60.248 53.808 60.892L58.608 57.292C58.143 56.672 57.1764 55.3658 55.7002 53.3624L50.8698 56.9216ZM58.7805 60.6355C58.7777 60.6402 58.8024 60.5997 58.8765 60.4901C58.9444 60.3896 59.0364 60.2565 59.1552 60.0877C59.3925 59.7505 59.718 59.2972 60.1352 58.7235L55.2828 55.1945C54.4773 56.3021 53.8789 57.143 53.6355 57.5485L58.7805 60.6355ZM60.1352 58.7235C60.9938 57.5429 62.0332 56.0769 63.2512 54.3294L58.3288 50.8986C57.1241 52.6271 56.1095 54.0578 55.2828 55.1945L60.1352 58.7235ZM63.2162 54.3785C64.4782 52.6433 65.8984 50.6971 67.4771 48.5395L62.6349 44.9965C61.0536 47.1576 59.6298 49.1087 58.3638 50.8495L63.2162 54.3785ZM67.4972 48.5117C69.0746 46.3034 70.6784 44.0686 72.3085 41.8074L67.4415 38.2986C65.8063 40.5667 64.1974 42.8086 62.6148 45.0243L67.4972 48.5117ZM72.3012 41.8175C73.9977 39.4849 75.6417 37.1779 77.2334 34.8965L72.3126 31.4635C70.7443 33.7114 69.123 35.9864 67.4488 38.2885L72.3012 41.8175ZM77.2065 34.9344C78.8326 32.679 80.325 30.6367 81.6842 28.807L76.8678 25.229C75.4883 27.0859 73.9788 29.1517 72.3395 31.4256L77.2065 34.9344ZM81.708 28.7745C83.0848 26.8682 84.2557 25.2184 85.2186 23.8276L80.2854 20.4124C79.3523 21.7603 78.2059 23.3758 76.844 25.2615L81.708 28.7745ZM85.2054 23.8465C86.2088 22.4206 86.8712 21.5166 87.2276 21.0711L82.5424 17.3229C82.0562 17.9307 81.2965 18.9754 80.2986 20.3935L85.2054 23.8465ZM81.885 19.197V79H87.885V19.197H81.885ZM84.885 76H75.721V82H84.885V76ZM78.721 79V46.926H72.721V79H78.721ZM78.721 46.926C78.721 46.6287 78.7396 46.2923 78.7817 45.9143L72.8184 45.2517C72.755 45.8216 72.721 46.3807 72.721 46.926H78.721ZM78.7286 46.2338C78.8361 45.7498 78.958 45.1254 78.958 44.556H72.958C72.958 44.5207 72.9591 44.4945 72.9599 44.4792C72.9607 44.4637 72.9616 44.455 72.9616 44.4543C72.9617 44.454 72.9598 44.4728 72.9534 44.5146C72.9402 44.6005 72.915 44.7363 72.8714 44.9322L78.7286 46.2338ZM73.558 42.756C73.0448 43.4403 72.2514 44.5634 71.1974 46.0918L76.1366 49.4982C77.1892 47.9719 77.9232 46.9357 78.358 46.356L73.558 42.756ZM71.1846 46.1105C70.1955 47.568 69.0203 49.2657 67.6574 51.2052L72.5666 54.6548C73.9424 52.6969 75.1371 50.9713 76.1494 49.4795L71.1846 46.1105ZM67.6479 51.2188C66.3262 53.122 64.9261 55.1562 63.4476 57.3211L68.4024 60.7049C69.8732 58.5512 71.2644 56.53 72.5761 54.6412L67.6479 51.2188ZM63.4673 57.2926C61.9907 59.402 60.5929 61.4064 59.2739 63.3058L64.2021 66.7282C65.5164 64.8356 66.9099 62.8373 68.3827 60.7334L63.4673 57.2926ZM59.2739 63.3058C57.9528 65.2082 56.7878 66.9028 55.7796 68.3885L60.7444 71.7575C61.7376 70.2939 62.8899 68.6178 64.2021 66.7282L59.2739 63.3058ZM55.8086 68.3465C54.8094 69.7664 54.0876 70.8192 53.677 71.4644L58.739 74.6856C59.0657 74.1722 59.7133 73.2236 60.7154 71.7995L55.8086 68.3465ZM58.5761 71.2332C58.2263 70.7835 57.5049 69.8305 56.396 68.352L51.596 71.952C52.6991 73.4228 53.4523 74.4185 53.8399 74.9168L58.5761 71.2332ZM56.4656 68.4488C55.3898 66.8888 54.1066 65.0981 52.6192 63.0794L47.7888 66.6386C49.2507 68.6226 50.4956 70.3606 51.5264 71.8552L56.4656 68.4488ZM52.6495 63.1214C51.2231 61.1137 49.6917 58.9751 48.0555 56.7056L43.1885 60.2144C44.8176 62.4742 46.3409 64.6016 47.7585 66.5966L52.6495 63.1214ZM48.0824 56.7435C46.5007 54.4764 45.0241 52.367 43.6526 50.4152L38.7434 53.8648C40.1105 55.8103 41.5833 57.9142 43.1616 60.1765L48.0824 56.7435ZM43.6526 50.4152C42.2765 48.4569 41.0802 46.7819 40.0652 45.3929L35.2208 48.933C36.2072 50.2828 37.3809 51.9258 38.7434 53.8648L43.6526 50.4152ZM40.0964 45.4365C39.6024 44.7346 39.2237 44.185 38.9542 43.7806C38.6482 43.3217 38.5701 43.1781 38.5883 43.2144L33.2217 45.8976C33.5061 46.4664 34.2551 47.5615 35.1896 48.8895L40.0964 45.4365ZM32.905 44.556C32.905 44.9466 32.9488 45.4322 33.0023 45.9143L38.9657 45.2517C38.9417 45.0365 38.9257 44.8679 38.9159 44.7407C38.9055 44.6049 38.905 44.5521 38.905 44.556H32.905ZM33.0554 46.2338C33.1203 46.5257 33.142 46.7537 33.142 46.926H39.142C39.142 46.2556 39.0584 45.5883 38.9126 44.9322L33.0554 46.2338ZM33.142 46.926V79H39.142V46.926H33.142ZM36.142 76H27.531V82H36.142V76ZM30.531 79V19.197H24.531V79H30.531Z" fill="white"/>
<path d="M56.5 42L26 0L87 0L56.5 42Z" fill="white"/>
<rect x="0.565147" y="0.119995" width="18.144" height="104.832" fill="white"/>
<rect x="0.565147" y="86.808" width="50.4" height="18.144" fill="white"/>
<rect width="18.144" height="104.832" transform="matrix(-0.999976 0.00687493 0.00687493 0.999976 111.428 0.119995)" fill="white"/>
<rect width="50.2113" height="18.144" transform="matrix(-0.999976 0.00687493 0.00687493 0.999976 111.835 86.828)" fill="white"/>
</svg>
