<svg width="112" height="105" viewBox="0 0 112 105" fill="none" xmlns="http://www.w3.org/2000/svg">
<path d="M27.4267 19.182C27.9007 19.9193 28.8751 21.3413 30.3497 23.448C31.8771 25.502 33.6151 27.8983 35.5637 30.637C37.5651 33.3756 39.6717 36.2986 41.8837 39.406C44.0957 42.4606 46.1761 45.3573 48.1247 48.096C50.0734 50.782 51.7587 53.1256 53.1807 55.127C54.6554 57.1283 55.6297 58.445 56.1037 59.077C56.2617 58.8136 56.7621 58.1026 57.6047 56.944C58.4474 55.7853 59.4744 54.337 60.6857 52.599C61.9497 50.861 63.3717 48.9123 64.9517 46.753C66.5317 44.541 68.1381 42.3026 69.7707 40.038C71.4561 37.7206 73.0887 35.4296 74.6687 33.165C76.3014 30.9003 77.8024 28.8463 79.1717 27.003C80.5411 25.107 81.6997 23.4743 82.6477 22.105C83.6484 20.683 84.3594 19.7086 84.7807 19.182V78.985H75.6167V46.911C75.6167 46.4896 75.6431 46.042 75.6957 45.568C75.8011 45.094 75.8537 44.7516 75.8537 44.541C75.3797 45.173 74.6161 46.2526 73.5627 47.78C72.5621 49.2546 71.3771 50.9663 70.0077 52.915C68.6911 54.811 67.2954 56.8386 65.8207 58.998C64.3461 61.1046 62.9504 63.106 61.6337 65.002C60.3171 66.898 59.1584 68.5833 58.1577 70.058C57.1571 71.48 56.4724 72.4806 56.1037 73.06C55.7351 72.586 54.9977 71.6116 53.8917 70.137C52.8384 68.6096 51.5744 66.8453 50.0997 64.844C48.6777 62.8426 47.1504 60.7096 45.5177 58.445C43.9377 56.1803 42.4631 54.0736 41.0937 52.125C39.7244 50.1763 38.5394 48.5173 37.5387 47.148C36.5381 45.726 35.9587 44.857 35.8007 44.541C35.8007 44.7516 35.8271 45.094 35.8797 45.568C35.9851 46.042 36.0377 46.4896 36.0377 46.911V78.985H27.4267V19.182Z" fill="#086D99"/>
<path d="M27.4267 19.182L29.9503 17.5597L24.4267 8.96753V19.182H27.4267ZM30.3497 23.448L27.892 25.1683L27.9167 25.2036L27.9424 25.2381L30.3497 23.448ZM35.5637 30.637L33.1194 32.3762L33.1304 32.3917L33.1416 32.407L35.5637 30.637ZM41.8837 39.406L39.4398 41.1458L39.4468 41.1557L39.4539 41.1655L41.8837 39.406ZM48.1247 48.096L45.6804 49.8352L45.6884 49.8465L45.6965 49.8576L48.1247 48.096ZM53.1807 55.127L50.7352 56.8646L50.7502 56.8857L50.7656 56.9066L53.1807 55.127ZM56.1037 59.077L53.7037 60.877L56.3807 64.4463L58.6762 60.6204L56.1037 59.077ZM60.6857 52.599L58.2595 50.8344L58.2418 50.8588L58.2246 50.8836L60.6857 52.599ZM64.9517 46.753L67.3728 48.5245L67.383 48.5106L67.3929 48.4967L64.9517 46.753ZM69.7707 40.038L67.3445 38.2734L67.3372 38.2836L69.7707 40.038ZM74.6687 33.165L72.2352 31.4106L72.2216 31.4294L72.2084 31.4484L74.6687 33.165ZM79.1717 27.003L81.58 28.7919L81.592 28.7758L81.6038 28.7594L79.1717 27.003ZM82.6477 22.105L80.1943 20.3785L80.1877 20.3879L80.1812 20.3973L82.6477 22.105ZM84.7807 19.182H87.7807V10.6296L82.4381 17.3079L84.7807 19.182ZM84.7807 78.985V81.985H87.7807V78.985H84.7807ZM75.6167 78.985H72.6167V81.985H75.6167V78.985ZM75.6957 45.568L72.7672 44.9172L72.732 45.0755L72.7141 45.2367L75.6957 45.568ZM75.8537 44.541H78.8537V35.541L73.4537 42.741L75.8537 44.541ZM73.5627 47.78L71.0931 46.0768L71.0867 46.0861L71.0803 46.0955L73.5627 47.78ZM70.0077 52.915L67.5532 51.1901L67.5484 51.1969L67.5436 51.2038L70.0077 52.915ZM65.8207 58.998L68.2784 60.7183L68.2884 60.7042L68.2981 60.6898L65.8207 58.998ZM61.6337 65.002L59.1696 63.2908L61.6337 65.002ZM58.1577 70.058L60.6112 71.7844L60.6258 71.7636L60.6402 71.7425L58.1577 70.058ZM56.1037 73.06L53.7357 74.9018L56.3492 78.2621L58.6347 74.6706L56.1037 73.06ZM53.8917 70.137L51.4221 71.8402L51.456 71.8893L51.4917 71.937L53.8917 70.137ZM50.0997 64.844L47.6542 66.5816L47.6692 66.6027L47.6846 66.6236L50.0997 64.844ZM45.5177 58.445L43.0574 60.1615L43.0706 60.1805L43.0842 60.1994L45.5177 58.445ZM41.0937 52.125L43.5483 50.4001V50.4001L41.0937 52.125ZM37.5387 47.148L35.0853 48.8744L35.1008 48.8964L35.1166 48.918L37.5387 47.148ZM35.8007 44.541L38.484 43.1993L32.8007 44.541H35.8007ZM35.8797 45.568L32.8981 45.8993L32.916 46.0604L32.9512 46.2188L35.8797 45.568ZM36.0377 78.985V81.985H39.0377V78.985H36.0377ZM27.4267 78.985H24.4267V81.985H27.4267V78.985ZM24.9032 20.8042C25.4143 21.5993 26.4225 23.0689 27.892 25.1683L32.8074 21.7276C31.3277 19.6136 30.3872 18.2393 29.9503 17.5597L24.9032 20.8042ZM27.9424 25.2381C29.454 27.271 31.1793 29.6497 33.1194 32.3762L38.0081 28.8977C36.0508 26.1469 34.3001 23.7329 32.7571 21.6579L27.9424 25.2381ZM33.1416 32.407C35.1347 35.1345 37.2341 38.0473 39.4398 41.1458L44.3277 37.6662C42.1094 34.5499 39.9954 31.6168 37.9859 28.8669L33.1416 32.407ZM39.4539 41.1655C41.6616 44.2142 43.7371 47.1041 45.6804 49.8352L50.5691 46.3567C48.6151 43.6105 46.5299 40.707 44.3136 37.6464L39.4539 41.1655ZM45.6965 49.8576C47.6412 52.5382 49.3205 54.8735 50.7352 56.8646L55.6263 53.3893C54.197 51.3777 52.5056 49.0257 50.553 46.3343L45.6965 49.8576ZM50.7656 56.9066C52.2387 58.9058 53.2208 60.233 53.7037 60.877L58.5037 57.277C58.0387 56.6569 57.0721 55.3508 55.5959 53.3474L50.7656 56.9066ZM58.6762 60.6204C58.6734 60.6252 58.6982 60.5847 58.7722 60.4751C58.8401 60.3745 58.9321 60.2415 59.0509 60.0727C59.2883 59.7354 59.6138 59.2821 60.031 58.7085L55.1785 55.1794C54.373 56.2871 53.7746 57.1279 53.5313 57.5335L58.6762 60.6204ZM60.031 58.7085C60.8896 57.5279 61.929 56.0618 63.1469 54.3143L58.2246 50.8836C57.0198 52.6121 56.0053 54.0427 55.1785 55.1794L60.031 58.7085ZM63.112 54.3635C64.3739 52.6283 65.7942 50.682 67.3728 48.5245L62.5307 44.9814C60.9493 47.1426 59.5256 49.0936 58.2595 50.8344L63.112 54.3635ZM67.3929 48.4967C68.9703 46.2883 70.5741 44.0536 72.2043 41.7924L67.3372 38.2836C65.7021 40.5517 64.0932 42.7936 62.5105 45.0092L67.3929 48.4967ZM72.197 41.8025C73.8934 39.4699 75.5375 37.1629 77.1291 34.8815L72.2084 31.4484C70.64 33.6964 69.0188 35.9714 67.3445 38.2734L72.197 41.8025ZM77.1023 34.9194C78.7283 32.6639 80.2207 30.6217 81.58 28.7919L76.7635 25.214C75.3841 27.0709 73.8745 29.1367 72.2352 31.4106L77.1023 34.9194ZM81.6038 28.7594C82.9805 26.8532 84.1515 25.2034 85.1143 23.8126L80.1812 20.3973C79.248 21.7452 78.1016 23.3608 76.7397 25.2465L81.6038 28.7594ZM85.1012 23.8314C86.1046 22.4056 86.7669 21.5016 87.1234 21.056L82.4381 17.3079C81.9519 17.9157 81.1923 18.9604 80.1943 20.3785L85.1012 23.8314ZM81.7808 19.182V78.985H87.7807V19.182H81.7808ZM84.7807 75.985H75.6167V81.985H84.7807V75.985ZM78.6167 78.985V46.911H72.6167V78.985H78.6167ZM78.6167 46.911C78.6167 46.6136 78.6354 46.2773 78.6774 45.8993L72.7141 45.2367C72.6508 45.8066 72.6167 46.3656 72.6167 46.911H78.6167ZM78.6243 46.2187C78.7319 45.7347 78.8537 45.1104 78.8537 44.541H72.8537C72.8537 44.5057 72.8548 44.4795 72.8557 44.4642C72.8565 44.4486 72.8573 44.44 72.8574 44.4392C72.8574 44.439 72.8556 44.4578 72.8491 44.4995C72.8359 44.5854 72.8107 44.7212 72.7672 44.9172L78.6243 46.2187ZM73.4537 42.741C72.9405 43.4252 72.1472 44.5484 71.0931 46.0768L76.0324 49.4832C77.085 47.9569 77.8189 46.9207 78.2537 46.341L73.4537 42.741ZM71.0803 46.0955C70.0913 47.553 68.916 49.2507 67.5532 51.1901L72.4623 54.6398C73.8382 52.6819 75.0329 50.9563 76.0452 49.4645L71.0803 46.0955ZM67.5436 51.2038C66.222 53.107 64.8219 55.1411 63.3433 57.3061L68.2981 60.6898C69.769 58.5361 71.1602 56.515 72.4719 54.6261L67.5436 51.2038ZM63.3631 57.2776C61.8865 59.387 60.4887 61.3914 59.1696 63.2908L64.0979 66.7132C65.4122 64.8205 66.8057 62.8223 68.2784 60.7183L63.3631 57.2776ZM59.1696 63.2908C57.8485 65.1932 56.6835 66.8877 55.6753 68.3735L60.6402 71.7425C61.6333 70.2789 62.7857 68.6027 64.0979 66.7132L59.1696 63.2908ZM55.7043 68.3315C54.7052 69.7514 53.9833 70.8041 53.5728 71.4493L58.6347 74.6706C58.9615 74.1571 59.609 73.2086 60.6112 71.7844L55.7043 68.3315ZM58.4718 71.2181C58.1221 70.7685 57.4007 69.8155 56.2917 68.337L51.4917 71.937C52.5948 73.4078 53.3481 74.4034 53.7357 74.9018L58.4718 71.2181ZM56.3614 68.4338C55.2855 66.8737 54.0023 65.083 52.5149 63.0644L47.6846 66.6236C49.1465 68.6076 50.3913 70.3455 51.4221 71.8402L56.3614 68.4338ZM52.5453 63.1063C51.1188 61.0987 49.5874 58.9601 47.9513 56.6906L43.0842 60.1994C44.7134 62.4592 46.2367 64.5866 47.6542 66.5816L52.5453 63.1063ZM47.9781 56.7284C46.3965 54.4614 44.9199 52.3519 43.5483 50.4001L38.6392 53.8498C40.0063 55.7953 41.479 57.8992 43.0574 60.1615L47.9781 56.7284ZM43.5483 50.4001C42.1722 48.4418 40.9759 46.7668 39.9609 45.3779L35.1166 48.918C36.1029 50.2678 37.2766 51.9108 38.6392 53.8498L43.5483 50.4001ZM39.9922 45.4215C39.4982 44.7195 39.1195 44.17 38.8499 43.7656C38.5439 43.3066 38.4659 43.163 38.484 43.1993L33.1175 45.8826C33.4019 46.4514 34.1508 47.5464 35.0853 48.8744L39.9922 45.4215ZM32.8007 44.541C32.8007 44.9316 32.8445 45.4171 32.8981 45.8993L38.8614 45.2367C38.8375 45.0215 38.8214 44.8529 38.8117 44.7256C38.8012 44.5899 38.8007 44.5371 38.8007 44.541H32.8007ZM32.9512 46.2188C33.0161 46.5107 33.0377 46.7387 33.0377 46.911H39.0377C39.0377 46.2406 38.9541 45.5732 38.8083 44.9172L32.9512 46.2188ZM33.0377 46.911V78.985H39.0377V46.911H33.0377ZM36.0377 75.985H27.4267V81.985H36.0377V75.985ZM30.4267 78.985V19.182H24.4267V78.985H30.4267Z" fill="#086D99"/>
<path d="M56.2075 41.8737L25.867 0L86.548 0L56.2075 41.8737Z" fill="#086D99"/>
<rect x="0.565147" y="0.119995" width="18.0491" height="104.517" fill="#086D99"/>
<rect x="0.565147" y="86.5469" width="50.1364" height="18.0894" fill="#086D99"/>
<rect width="18.0491" height="104.517" transform="matrix(-0.999976 0.00691107 0.00683898 0.999977 110.848 0.119995)" fill="#086D99"/>
<rect width="49.9487" height="18.0894" transform="matrix(-0.999976 0.00689028 0.00685961 0.999977 111.252 86.5669)" fill="#086D99"/>
</svg>
