<svg width="66" height="66" viewBox="0 0 66 66" fill="none" xmlns="http://www.w3.org/2000/svg">
<rect x="0.25" y="0.5" width="65" height="65" rx="32.5" fill="white"/>
<path d="M13.3044 32.8172V51.6135H18.5489H23.7933V43.7817V35.95H30.4681H37.1428V32.2951V28.6402H30.4681H23.7933V25.5075V22.3747H31.4216H39.0498V18.1977V14.0208H26.1772H13.3044V32.8172Z" fill="#2C3031"/>
<path d="M44.5146 36.6989L47.4772 37.0194L45.9598 40.6977L43.6449 45.9461L47.8223 45.9189L45.65 49L43.7221 51.6622H50.114L51.6215 47.1577L52.9269 42.6043L48.4733 42.383L49.9531 34.9057L47.2388 34.5528L47.2306 29.2344L45.9794 32.7614L44.5146 36.6989Z" fill="#2C3031"/>
<path d="M46.7545 25.4658C48.8401 25.4658 50.5307 23.6144 50.5307 21.3305C50.5307 19.0467 48.8401 17.1953 46.7545 17.1953C44.6691 17.1953 42.9785 19.0467 42.9785 21.3305C42.9785 23.6144 44.6691 25.4658 46.7545 25.4658Z" fill="#2C3031"/>
</svg>
