<svg width="66" height="66" viewBox="0 0 66 66" fill="none" xmlns="http://www.w3.org/2000/svg">
<rect x="0.25" y="0.5" width="65" height="65" rx="32.5" fill="white"/>
<path d="M22.2328 21.063C22.409 21.3343 22.7711 21.8574 23.3192 22.6326C23.8869 23.3883 24.5329 24.2699 25.2572 25.2776C26.001 26.2852 26.784 27.3606 27.6062 28.5039C28.4283 29.6278 29.2016 30.6935 29.9259 31.7012C30.6501 32.6894 31.2765 33.5517 31.8051 34.288C32.3532 35.0244 32.7153 35.5088 32.8915 35.7413C32.9502 35.6445 33.1362 35.3829 33.4494 34.9566C33.7626 34.5302 34.1443 33.9974 34.5945 33.3579C35.0643 32.7185 35.5929 32.0015 36.1801 31.207C36.7674 30.3932 37.3644 29.5697 37.9713 28.7364C38.5977 27.8838 39.2045 27.0409 39.7918 26.2077C40.3986 25.3744 40.9565 24.6187 41.4654 23.9405C41.9744 23.2429 42.4051 22.6422 42.7574 22.1384C43.1293 21.6152 43.3936 21.2568 43.5502 21.063V43.066H40.1441V31.2652C40.1441 31.1102 40.1539 30.9454 40.1735 30.771C40.2126 30.5966 40.2322 30.4707 40.2322 30.3932C40.056 30.6257 39.7722 31.023 39.3807 31.5849C39.0087 32.1275 38.5683 32.7572 38.0594 33.4742C37.57 34.1718 37.0512 34.9178 36.5031 35.7123C35.955 36.4874 35.4363 37.2237 34.9469 37.9213C34.4575 38.6189 34.0269 39.2389 33.6549 39.7815C33.283 40.3047 33.0285 40.6729 32.8915 40.886C32.7545 40.7116 32.4804 40.3532 32.0693 39.8106C31.6778 39.2487 31.208 38.5995 30.6599 37.8632C30.1314 37.1268 29.5637 36.342 28.9569 35.5088C28.3696 34.6756 27.8215 33.9005 27.3126 33.1835C26.8036 32.4666 26.3632 31.8562 25.9912 31.3524C25.6193 30.8292 25.404 30.5094 25.3452 30.3932C25.3452 30.4707 25.355 30.5966 25.3746 30.771C25.4137 30.9454 25.4333 31.1102 25.4333 31.2652V43.066H22.2328V21.063Z" fill="#2C3031"/>
<path d="M22.2327 21.0631L23.1707 20.4662L21.1177 17.3049V21.0631H22.2327ZM23.3191 22.6326L22.4057 23.2656L22.4148 23.2786L22.4244 23.2913L23.3191 22.6326ZM25.2571 25.2777L24.3486 25.9176L24.3526 25.9232L24.3568 25.9289L25.2571 25.2777ZM27.6061 28.504L26.6977 29.1441L26.7004 29.1477L26.703 29.1513L27.6061 28.504ZM29.9258 31.7012L29.0172 32.3412L29.0202 32.3453L29.0232 32.3494L29.9258 31.7012ZM31.805 34.2881L30.8961 34.9274L30.9016 34.9352L30.9073 34.9429L31.805 34.2881ZM32.8914 35.7414L31.9994 36.4037L32.9944 37.7169L33.8476 36.3093L32.8914 35.7414ZM34.5945 33.358L33.6927 32.7088L33.6861 32.7178L33.6797 32.7269L34.5945 33.358ZM36.1801 31.2071L37.0799 31.8589L37.0837 31.8538L37.0874 31.8487L36.1801 31.2071ZM37.9712 28.7365L37.0694 28.0873L37.0667 28.091L37.9712 28.7365ZM39.7917 26.2078L38.8872 25.5623L38.8822 25.5692L38.8772 25.5762L39.7917 26.2078ZM41.4654 23.9406L42.3605 24.5988L42.3649 24.5929L42.3693 24.5869L41.4654 23.9406ZM42.7573 22.1385L41.8455 21.5033L41.843 21.5068L41.8406 21.5103L42.7573 22.1385ZM43.5501 21.0631H44.6652V17.9165L42.6794 20.3735L43.5501 21.0631ZM43.5501 43.0661V44.1698H44.6652V43.0661H43.5501ZM40.1441 43.0661H39.029V44.1698H40.1441V43.0661ZM40.1734 30.7711L39.0849 30.5317L39.0719 30.5899L39.0652 30.6492L40.1734 30.7711ZM40.2321 30.3933H41.3472V27.082L39.3401 29.731L40.2321 30.3933ZM39.3806 31.585L38.4627 30.9583L38.4603 30.9618L38.458 30.9652L39.3806 31.585ZM38.0593 33.4743L37.147 32.8397L37.1452 32.8422L37.1434 32.8447L38.0593 33.4743ZM36.5031 35.7124L37.4165 36.3453L37.4202 36.3401L37.4239 36.3349L36.5031 35.7124ZM34.9468 37.9214L34.031 37.2918L34.9468 37.9214ZM33.6549 39.7816L34.5667 40.4168L34.5722 40.4091L34.5775 40.4014L33.6549 39.7816ZM32.8914 40.8861L32.0113 41.5638L32.9827 42.8001L33.8322 41.4787L32.8914 40.8861ZM32.0693 39.8107L31.1514 40.4373L31.1639 40.4554L31.1772 40.4729L32.0693 39.8107ZM30.6599 37.8632L29.7509 38.5026L29.7565 38.5103L29.7622 38.518L30.6599 37.8632ZM28.9568 35.5089L28.0423 36.1404L28.0473 36.1475L28.0523 36.1544L28.9568 35.5089ZM27.3125 33.1836L28.2248 32.549L27.3125 33.1836ZM25.9912 31.3525L25.0793 31.9877L25.085 31.9957L25.0909 32.0037L25.9912 31.3525ZM25.3452 30.3933L26.3425 29.8997L24.2301 30.3933H25.3452ZM25.3745 30.7711L24.2663 30.893L24.273 30.9523L24.286 31.0106L25.3745 30.7711ZM25.4333 43.0661V44.1698H26.5483V43.0661H25.4333ZM22.2327 43.0661H21.1177V44.1698H22.2327V43.0661ZM21.2948 21.66C21.4847 21.9525 21.8594 22.4932 22.4057 23.2656L24.2326 21.9997C23.6826 21.2219 23.333 20.7162 23.1707 20.4662L21.2948 21.66ZM22.4244 23.2913C22.9862 24.0392 23.6275 24.9144 24.3486 25.9176L26.1656 24.6377C25.4381 23.6256 24.7874 22.7375 24.2139 21.974L22.4244 23.2913ZM24.3568 25.9289C25.0976 26.9324 25.8779 28.0041 26.6977 29.1441L28.5145 27.8639C27.69 26.7173 26.9043 25.6381 26.1574 24.6264L24.3568 25.9289ZM26.703 29.1513C27.5236 30.2731 28.295 31.3363 29.0172 32.3412L30.8343 31.0613C30.108 30.0509 29.333 28.9827 28.5092 27.8566L26.703 29.1513ZM29.0232 32.3494C29.7461 33.3357 30.3702 34.1949 30.8961 34.9274L32.714 33.6488C32.1827 32.9087 31.5541 32.0433 30.8283 31.0531L29.0232 32.3494ZM30.9073 34.9429C31.4549 35.6785 31.8199 36.1667 31.9994 36.4037L33.7835 35.0792C33.6106 34.851 33.2514 34.3705 32.7027 33.6334L30.9073 34.9429ZM33.8476 36.3093C33.8465 36.311 33.8557 36.2961 33.8833 36.2558C33.9085 36.2188 33.9427 36.1699 33.9868 36.1078C34.075 35.9837 34.196 35.8169 34.3511 35.6058L32.5475 34.3074C32.2482 34.715 32.0257 35.0243 31.9353 35.1735L33.8476 36.3093ZM34.3511 35.6058C34.6702 35.1715 35.0565 34.6321 35.5093 33.9891L33.6797 32.7269C33.2319 33.3628 32.8548 33.8892 32.5475 34.3074L34.3511 35.6058ZM35.4962 34.0072C35.9653 33.3688 36.4932 32.6527 37.0799 31.8589L35.2802 30.5553C34.6924 31.3505 34.1632 32.0683 33.6927 32.7088L35.4962 34.0072ZM37.0874 31.8487C37.6737 31.0362 38.2698 30.2139 38.8757 29.382L37.0667 28.091C36.4589 28.9255 35.8609 29.7504 35.2727 30.5656L37.0874 31.8487ZM38.873 29.3857C39.5035 28.5275 40.1146 27.6787 40.7062 26.8393L38.8772 25.5762C38.2943 26.4033 37.6917 27.2403 37.0694 28.0873L38.873 29.3857ZM40.6962 26.8533C41.3006 26.0234 41.8553 25.272 42.3605 24.5988L40.5703 23.2824C40.0576 23.9656 39.4965 24.7257 38.8872 25.5623L40.6962 26.8533ZM42.3693 24.5869C42.881 23.8855 43.3162 23.2785 43.6741 22.7668L41.8406 21.5103C41.4937 22.0062 41.0676 22.6006 40.5614 23.2944L42.3693 24.5869ZM43.6692 22.7737C44.0422 22.2491 44.2884 21.9165 44.4208 21.7526L42.6794 20.3735C42.4987 20.5972 42.2164 20.9815 41.8455 21.5033L43.6692 22.7737ZM42.4351 21.0631V43.0661H44.6652V21.0631H42.4351ZM43.5501 41.9623H40.1441V44.1698H43.5501V41.9623ZM41.2591 43.0661V31.2653H39.029V43.0661H41.2591ZM41.2591 31.2653C41.2591 31.1559 41.266 31.0321 41.2817 30.893L39.0652 30.6492C39.0416 30.8589 39.029 31.0646 39.029 31.2653H41.2591ZM41.2619 31.0106C41.3019 30.8325 41.3472 30.6028 41.3472 30.3933H39.1171C39.1171 30.3803 39.1175 30.3706 39.1178 30.365C39.1181 30.3593 39.1184 30.3561 39.1184 30.3559C39.1185 30.3557 39.1178 30.3627 39.1154 30.378C39.1105 30.4096 39.1011 30.4596 39.0849 30.5317L41.2619 31.0106ZM39.3401 29.731C39.1494 29.9828 38.8545 30.396 38.4627 30.9583L40.2985 32.2116C40.6898 31.6501 40.9626 31.2688 41.1242 31.0555L39.3401 29.731ZM38.458 30.9652C38.0903 31.5015 37.6535 32.1261 37.147 32.8397L38.9716 34.1089C39.483 33.3885 39.927 32.7536 40.3033 32.2048L38.458 30.9652ZM37.1434 32.8447C36.6522 33.5449 36.1318 34.2933 35.5823 35.0899L37.4239 36.3349C37.9705 35.5425 38.4876 34.7988 38.9752 34.1039L37.1434 32.8447ZM35.5896 35.0794C35.0408 35.8555 34.5212 36.593 34.031 37.2918L35.8627 38.551C36.3512 37.8546 36.8691 37.1194 37.4165 36.3453L35.5896 35.0794ZM34.031 37.2918C33.5399 37.9917 33.1069 38.6152 32.7322 39.1618L34.5775 40.4014C34.9467 39.8629 35.375 39.2462 35.8627 38.551L34.031 37.2918ZM32.743 39.1464C32.3716 39.6688 32.1033 40.0562 31.9507 40.2935L33.8322 41.4787C33.9536 41.2898 34.1943 40.9408 34.5667 40.4168L32.743 39.1464ZM33.7716 40.2085C33.6416 40.043 33.3735 39.6924 32.9613 39.1484L31.1772 40.4729C31.5872 41.0141 31.8672 41.3804 32.0113 41.5638L33.7716 40.2085ZM32.9872 39.184C32.5873 38.6101 32.1104 37.9512 31.5575 37.2085L29.7622 38.518C30.3055 39.248 30.7682 39.8874 31.1514 40.4373L32.9872 39.184ZM31.5688 37.2239C31.0386 36.4853 30.4694 35.6984 29.8613 34.8634L28.0523 36.1544C28.6578 36.9858 29.224 37.7685 29.7509 38.5026L31.5688 37.2239ZM29.8713 34.8774C29.2834 34.0432 28.7346 33.2671 28.2248 32.549L26.4002 33.8182C26.9083 34.534 27.4557 35.3081 28.0423 36.1404L29.8713 34.8774ZM28.2248 32.549C27.7133 31.8285 27.2687 31.2122 26.8915 30.7012L25.0909 32.0037C25.4575 32.5003 25.8937 33.1048 26.4002 33.8182L28.2248 32.549ZM26.903 30.7172C26.7194 30.459 26.5787 30.2568 26.4785 30.108C26.3648 29.9391 26.3357 29.8863 26.3425 29.8997L24.3478 30.8869C24.4536 31.0962 24.7319 31.4991 25.0793 31.9877L26.903 30.7172ZM24.2301 30.3933C24.2301 30.537 24.2464 30.7156 24.2663 30.893L26.4828 30.6492C26.4739 30.5701 26.4679 30.508 26.4643 30.4612C26.4604 30.4113 26.4602 30.3918 26.4602 30.3933H24.2301ZM24.286 31.0106C24.3102 31.118 24.3182 31.2019 24.3182 31.2653H26.5483C26.5483 31.0186 26.5172 30.7731 26.4631 30.5317L24.286 31.0106ZM24.3182 31.2653V43.0661H26.5483V31.2653H24.3182ZM25.4333 41.9623H22.2327V44.1698H25.4333V41.9623ZM23.3478 43.0661V21.0631H21.1177V43.0661H23.3478Z" fill="#2C3031"/>
<path d="M33 29.4528L21.6637 14H44.3363L33 29.4528Z" fill="#2C3031"/>
<path d="M18.9539 14.0442H12.2101V52.6145H18.9539V14.0442Z" fill="#2C3031"/>
<path d="M30.9428 45.9387H12.2101V52.6143H30.9428V45.9387Z" fill="#2C3031"/>
<path d="M46.6721 14.0901L53.4158 14.0442L53.6836 52.6135L46.94 52.6594L46.6721 14.0901Z" fill="#2C3031"/>
<path d="M34.9049 46.0731L53.567 45.946L53.6134 52.6215L34.9512 52.7485L34.9049 46.0731Z" fill="#2C3031"/>
</svg>
