<svg height="477pt" viewBox="0 -63 477.64787 477" width="477pt" xmlns="http://www.w3.org/2000/svg"><path d="m230.007812 219.941406 7.972657-11.554687c2.273437-3.300781 2.914062-7.136719 1.804687-10.804688-1.199218-3.929687-4.316406-7.152343-8.570312-8.832031-6.238282-2.472656-13.6875-1.195312-18.53125 3.167969l-4.6875 4.230469c-3.117188 2.8125-7.308594 4.75-11.796875 5.472656l-21.082031 3.371094c-9.011719 1.433593-18.1875-1.898438-22.789063-8.3125-5.527344-7.710938-6.515625-17.132813-2.707031-25.859376l.210937-.488281c4.339844-9.949219 14.179688-17.71875 26.3125-20.777343 3.519531-.890626 7.152344-.839844 10.507813.140624l4.082031 1.191407c4.738281 1.382812 11.226563 5.917969 18.273437 12.757812 5.589844 5.4375 14.269532 6.078125 20.625 1.511719 3.753907-2.695312 6.175782-6.882812 6.640626-11.480469.460937-4.617187-1.085938-9.214843-4.246094-12.628906-.003906-.003906-.28125-.304687-.285156-.308594-7.230469-7.75-16.320313-13.835937-26.289063-17.605469l-10.585937-4c-7.09375-2.683593-15.011719-3.699218-22.871094-2.941406l-21.582032 2.078125c-.625.078125-.984374-.183593-1.019531-.265625-.011719-.085937.132813-.472656.6875-.765625l24.902344-13.109375c6.742187-3.550781 14.363281-5.890625 22.046875-6.765625 6.417969-.738281 12.929688-.191406 18.816406 1.582031l14.644532 4.414063c5.972656 3 14.113281 1.117187 18.367187-4.3125 2.25-2.863281 3.113281-6.378906 2.378906-9.644531-.722656-3.214844-2.84375-5.847656-5.980469-7.414063l-18.132812-9.070312c-9.753906-4.878907-21.539062-6.5-33.179688-4.554688l-3.210937.53125c-6.105469 1.015625-11.976563 2.972657-17.4375 5.8125l-32.660156 16.976563c-.613281.320312-1.160157.171875-1.234375.171875 0-.046875.074218-.277344.386718-.511719l26.753907-20.152344c3.582031-2.695312 7.472656-5.125 11.570312-7.214844l9.984375-5.097656c9.609375-4.898437 19.917969-8.421875 30.632813-10.476562l14.015625-2.683594c7.453125-1.421875 13.25-7.554688 13.476562-14.253906.128906-3.597656-1.300781-6.871094-4.023437-9.210938-3.179688-2.734375-7.679688-3.792968-12.3125-2.921875l-13.019531 2.449219c-13.96875 2.628906-27.410157 7.179688-39.960938 13.515625l-12.175781 6.152344c-4.636719 2.347656-9.039063 5.113281-13.078125 8.230469l-20.277344 15.746093 27.039062-31.519531c2.085938-2.578125 3.023438-5.796875 2.574219-8.828125-.417969-2.796875-1.933593-5.21875-4.289062-6.828125-4.851563-3.3125-12-2.222656-16.289063 2.476562-10.34375 11.347657-44.84375 49.15625-54.46875 59.171876-7.496094 7.792968-14.648437 29.578124-22.222656 52.636718-4.714844 14.359375-9.167969 27.921875-13.238281 36.398438-2.269531 4.726562-5.957031 8.25-10.960938 10.464844-17.046875 7.550781-26.210937 23.976562-22.804687 40.867187l2.933594 14.554687c3.730468 18.5 21.664062 31.984376 41.71875 31.984376 1.21875 0 2.449218-.054688 3.683593-.152344.1875-.015625.371094-.046875.558594-.085938l60.550781-13.679687c6.578125-.605469 13.128906-1.792969 19.171875-3.46875l44.222657-8.382813 1.414062-.382812c14.972656-4.089844 30.472656-8.300782 39.039062-20.710938zm0 0" fill="#e6e7e8"/><path d="m439.605469 122.480469c-.1875-.019531-.378907-.039063-.5625-.03125l-62.0625 1.152343c-6.566407-.742187-13.230469-.898437-19.480469-.480468l-45.007812-.738282-1.472657.09375c-15.496093.953126-31.519531 1.945313-42.414062 12.359376l-10.144531 9.703124c-2.902344 2.769532-4.300782 6.398438-3.949219 10.214844.371093 4.09375 2.777343 7.882813 6.601562 10.386719 5.613281 3.679687 13.167969 3.933594 18.78125.640625l5.441407-3.1875c3.625-2.121094 8.140624-3.183594 12.664062-2.96875l21.332031.957031c9.132813.414063 17.421875 5.539063 20.636719 12.753907 3.855469 8.667968 2.914062 18.09375-2.585938 25.878906l-.296874.425781c-6.261719 8.863281-17.46875 14.484375-29.976563 15.027344-3.589844.179687-7.167969-.621094-10.253906-2.261719l-3.757813-1.996094c-4.359375-2.316406-9.796875-8.0625-15.3125-16.183594-4.390625-6.464843-12.761718-8.832031-19.902344-5.65625-4.222656 1.886719-7.433593 5.492188-8.820312 9.902344-1.390625 4.421875-.804688 9.246094 1.601562 13.222656 0 .003907.214844.351563.214844.355469 5.507813 9.046875 13.183594 16.847657 22.191406 22.5625l9.558594 6.058594c6.402344 4.058594 13.9375 6.65625 21.796875 7.503906l21.5625 2.332031c.648438.070313.933594.402344.949219.472657-.011719.082031-.234375.433593-.832031.605469l-27.039063 7.804687c-7.320312 2.113281-15.25 2.867187-22.953125 2.167969-6.441406-.578125-12.707031-2.429688-18.105469-5.355469l-13.453124-7.285156c-5.246094-4.136719-13.601563-3.941407-18.863282.507812-2.777344 2.351563-4.335937 5.621094-4.277344 8.964844.058594 3.292969 1.605469 6.300781 4.359376 8.472656l15.921874 12.550781c8.574219 6.75 19.78125 10.71875 31.578126 11.171876l3.25.128906c6.207031.257812 12.332031-.488282 18.257812-2.164063l35.414062-10.015625c.679688-.183594 1.179688.0625 1.25.078125-.015624.050781-.128906.257813-.480468.425781l-30.28125 14.324219c-4.050782 1.914063-8.355469 3.503907-12.789063 4.726563l-10.8125 2.972656c-10.394531 2.859375-21.183593 4.234375-32.109375 4.070312l-14.269531-.210937c-.082031 0-.171875 0-.253906 0-7.484375 0-14.265625 4.796875-15.828125 11.242187-.851563 3.5-.113282 6.992188 2.082031 9.832032 2.558594 3.320312 6.742187 5.265625 11.464844 5.351562l13.246093.230469c14.195313.253906 28.292969-1.484375 41.867188-5.152344l13.171875-3.5625c5.019531-1.355469 9.890625-3.179687 14.46875-5.414062l23.042969-11.3125-32.847656 25.394531c-2.566407 2.105469-4.132813 5.066406-4.308594 8.125-.160156 2.824219.839844 5.503906 2.820312 7.554688 2.199219 2.277343 5.316406 3.4375 8.527344 3.4375 2.742188 0 5.554688-.847657 7.921875-2.570313 15.972656-11.59375 54.316406-39.382813 65.3125-46.925781 4.355469-2.988282 9.605469-9.433594 16.527344-20.289063 1.191406-1.859375 14.300781-24.011719 16.773437-28.324219l1.164063-2.027343c1.101562-1.914063 7.601562-13.003907 8.726562-14.90625 4.15625-6.992188 6.210938-10.101563 9.546875-14.480469 3.179688-4.175781 7.503906-6.875 12.851563-8.03125 18.222656-3.945312 30.519531-18.179688 30.59375-35.410156l.074219-14.84375c.078124-20.023438-16.625-37.753906-38.042969-40.359375zm0 0" fill="#e6e7e8"/><path d="m4.628906 203.460938c-3.042968-15.074219 5.4375-29.746094 20.503906-36.417969 5.191407-2.300781 9.941407-6.140625 12.945313-12.390625 10.484375-21.835938 23.316406-76.121094 34.738281-87.996094 9.332032-9.707031 41.527344-44.972656 54.546875-59.25 2.945313-3.226562 7.855469-4.0625 11.078125-1.867188 3.175782 2.167969 3.550782 6.503907.855469 9.839844l-33.675781 39.265625c-.910156 1.058594-1.023438 2.460938-.28125 3.480469.992187 1.363281 3.140625 1.535156 4.648437.371094l28.097657-21.660156c3.84375-2.964844 8.019531-5.589844 12.441406-7.824219l12.179687-6.15625c12.117188-6.125 25.265625-10.589844 38.890625-13.152344l13.023438-2.453125c6.417968-1.207031 11.792968 2.511719 11.597656 8.0625-.167969 4.867188-4.609375 9.394531-10.234375 10.46875l-14.015625 2.6875c-11.105469 2.121094-21.820312 5.800781-31.691406 10.84375l-9.988282 5.09375c-4.308593 2.199219-8.382812 4.742188-12.15625 7.585938l-26.761718 20.152343c-1.8125 1.363281-2.46875 3.585938-1.59375 5.378907 1.089844 2.238281 4.148437 3.019531 6.691406 1.699218l32.660156-16.976562c5.058594-2.632813 10.570313-4.472656 16.25-5.414063l3.203125-.53125c10.8125-1.800781 21.691407-.335937 30.738281 4.1875l18.132813 9.066407c4.320313 2.160156 5.324219 7.089843 2.242187 11.015624-3.167968 4.042969-9.394531 5.421876-13.703124 3.0625l-15.007813-4.523437c-6.449219-1.9375-13.441406-2.527344-20.425781-1.726563-8.242188.945313-16.246094 3.414063-23.449219 7.203126l-24.902344 13.109374c-2.316406 1.21875-3.390625 3.695313-2.53125 5.808594.753907 1.855469 2.824219 2.96875 5.113281 2.746094l21.585938-2.074219c7.265625-.699219 14.523438.222657 21.074219 2.699219l10.582031 4c9.417969 3.558594 17.917969 9.230469 24.785156 16.59375.089844.097656.183594.199219.273438.292969 4.976562 5.375 4.152344 13.871093-1.792969 18.140625-4.769531 3.425781-11.300781 2.957031-15.507813-1.132813-5.40625-5.246093-13.117187-11.730469-19.9375-13.722656l-4.082031-1.195313c-4.019531-1.175781-8.421875-1.230468-12.605469-.179687-13.40625 3.378906-24.191406 12.027344-29.003906 23.054687l-.214844.496094c-4.363281 9.996094-3.195312 20.964844 3.125 29.78125 5.5 7.671875 16.050782 11.632813 26.671876 9.929688l21.089843-3.371094c5.261719-.84375 10.128907-3.101562 13.84375-6.453125l4.6875-4.222656c3.691407-3.328125 9.554688-4.324219 14.375-2.417969 6.148438 2.429688 8.398438 8.640625 4.945313 13.640625l-7.976563 11.558594c-7.988281 11.570312-23.429687 15.457031-38.21875 19.484375l-43.917969 8.3125c-6.238281 1.714844-12.625 2.867187-19.054687 3.433594l-60.808594 13.742187c-19.578125 1.613281-37.609375-11.066406-41.152343-28.632813zm0 0" fill="#fff"/><path d="m132.21875 97.699219 24.902344-13.109375c7.203125-3.789063 15.207031-6.257813 23.449218-7.203125 6.984376-.800781 13.976563-.210938 20.425782 1.726562l15.007812 4.523438c4.308594 2.359375 10.535156.984375 13.703125-3.0625 3.078125-3.925781 2.078125-8.855469-2.242187-11.015625l-18.132813-9.066406c-9.046875-4.527344-19.929687-5.988282-30.738281-4.1875l-3.203125.53125c-5.679687.941406-11.191406 2.785156-16.25 5.414062l-32.660156 16.976562c-2.542969 1.320313-5.601563.539063-6.691407-1.699218-.878906-1.796875-.222656-4.015625 1.59375-5.378906l26.761719-20.152344c3.773438-2.84375 7.847657-5.386719 12.15625-7.585938l9.988281-5.09375c9.871094-5.042968 20.585938-8.71875 31.691407-10.84375l14.015625-2.683594c5.625-1.078124 10.066406-5.605468 10.234375-10.472656.191406-5.550781-5.179688-9.269531-11.597657-8.0625l-13.019531 2.453125c-13.628906 2.5625-26.777343 7.03125-38.894531 13.152344l-12.179688 6.15625c-4.421874 2.234375-8.59375 4.859375-12.441406 7.824219l-28.097656 21.660156c-1.511719 1.164062-3.65625.992188-4.648438-.371094-.738281-1.019531-.628906-2.425781.28125-3.480468l31.453126-36.671876c-.609376.414063-1.199219.875-1.714844 1.4375-13.015625 14.28125-45.214844 49.546876-54.546875 59.25-11.417969 11.875-24.253907 66.160157-34.738281 87.996094-3 6.25-7.75 10.089844-12.945313 12.390625-15.0625 6.671875-23.542969 21.347657-20.503906 36.417969l2.933593 14.554688c.378907 1.867187.949219 3.664062 1.636719 5.410156 7.863281 7.734375 19.386719 12.226562 31.511719 11.226562l60.808594-13.742187c6.433594-.570313 12.816406-1.71875 19.054687-3.433594l43.917969-8.3125c14.789062-4.027344 30.230469-7.917969 38.21875-19.484375l7.976562-11.554688c3.453126-5.003906 1.203126-11.214843-4.945312-13.644531-4.820312-1.910156-10.683594-.910156-14.375 2.417969l-4.6875 4.226562c-3.714844 3.347657-8.578125 5.605469-13.84375 6.449219l-21.089844 3.375c-10.617187 1.699219-21.167968-2.261719-26.671875-9.933593-6.324219-8.816407-7.488281-19.785157-3.125-29.78125l.214844-.496094c4.8125-11.027344 15.601563-19.675782 29.003906-23.054688 4.183594-1.054687 8.582031-.996094 12.605469.179688l4.082031 1.195312c6.820313 1.992188 14.53125 8.480469 19.9375 13.726563 4.210938 4.085937 10.742188 4.554687 15.507813 1.128906 5.945312-4.269531 6.769531-12.765625 1.796875-18.140625-.09375-.097656-.1875-.195312-.277344-.292969-6.867187-7.359375-15.363281-13.039062-24.78125-16.59375l-10.582031-4c-6.550782-2.476562-13.808594-3.398437-21.074219-2.699219l-21.585937 2.074219c-2.289063.222657-4.355469-.894531-5.113282-2.746093-.863281-2.132813.210938-4.609376 2.527344-5.824219zm0 0" fill="#6dc9f7"/><path d="m457.558594 161.664062c-.070313 15.371094-11.34375 28.03125-27.441406 31.515626-5.554688 1.203124-10.980469 4-15.1875 9.515624-14.683594 19.265626-38.230469 69.832032-51.8125 79.152344-11.105469 7.617188-49.769532 35.640625-65.40625 46.992188-3.535157 2.566406-8.515626 2.390625-11.226563-.414063-2.671875-2.761719-2.164063-7.085937 1.152344-9.804687l40.917969-31.640625c1.105468-.851563 1.5-2.210938.980468-3.351563-.695312-1.539062-2.761718-2.140625-4.480468-1.304687l-31.898438 15.527343c-4.363281 2.125-8.980469 3.851563-13.765625 5.144532l-13.171875 3.5625c-13.101562 3.542968-26.882812 5.261718-40.746094 5.015625l-13.25-.230469c-6.53125-.117188-11.042968-4.84375-9.730468-10.242188 1.152343-4.730468 6.414062-8.265624 12.144531-8.183593l14.265625.210937c11.304687.164063 22.546875-1.273437 33.234375-4.210937l10.816406-2.972657c4.664063-1.277343 9.167969-2.945312 13.4375-4.964843l30.28125-14.324219c2.050781-.972656 3.144531-3.011719 2.648437-4.949219-.617187-2.414062-3.453124-3.800781-6.210937-3.019531l-35.417969 10.015625c-5.488281 1.550781-11.261718 2.238281-17.011718 2.015625l-3.25-.128906c-10.949219-.421875-21.304688-4.054688-29.253907-10.320313l-15.925781-12.546875c-3.792969-2.992187-3.777344-8.019531.035156-11.242187 3.921875-3.320313 10.292969-3.410157 14.039063-.226563l13.785156 7.464844c5.917969 3.203125 12.644531 5.191406 19.648437 5.824219 8.265626.746093 16.605469-.050781 24.425782-2.3125l27.035156-7.804688c2.511719-.722656 4.070312-2.929687 3.652344-5.175781-.363282-1.96875-2.164063-3.480469-4.453125-3.722656l-21.558594-2.332032c-7.25-.785156-14.175781-3.15625-20.085937-6.90625l-9.558594-6.054687c-8.5-5.386719-15.679688-12.664063-20.910156-21.261719-.074219-.117187-.140626-.234375-.214844-.347656-3.785156-6.269531-1.261719-14.421875 5.429687-17.402344 5.359375-2.386718 11.664063-.609375 14.960938 4.246094 4.230469 6.230469 10.472656 14.136719 16.746093 17.46875l3.761719 1.996094c3.695313 1.964844 7.996094 2.914062 12.304688 2.726562 13.8125-.601562 26.125-6.890625 33.066406-16.714844l.3125-.4375c6.292969-8.90625 7.367187-19.882812 2.957031-29.796874-3.835937-8.625-13.367187-14.636719-24.113281-15.121094l-21.332031-.957032c-5.324219-.242187-10.546875.992188-14.863282 3.515626l-5.449218 3.191406c-4.289063 2.511718-10.234375 2.304687-14.566406-.539063-5.527344-3.628906-6.476563-10.164062-2.082032-14.367187l10.148438-9.703125c10.160156-9.714844 26.078125-10.394531 41.371094-11.351563l44.6875.742188c6.460937-.421875 12.945312-.253906 19.359374.484375l62.328126-1.15625c19.5 2.378906 34.59375 18.441406 34.507812 36.367187zm0 0" fill="#fa759e"/><g fill="#3a2c60"><path d="m214.007812 203.941406 7.976563-11.550781c2.273437-3.300781 2.914063-7.136719 1.800781-10.804687-1.199218-3.929688-4.316406-7.15625-8.570312-8.832032-6.230469-2.476562-13.683594-1.199218-18.523438 3.164063l-4.691406 4.230469c-3.121094 2.8125-7.3125 4.75-11.800781 5.472656l-21.082031 3.371094c-9.027344 1.449218-18.1875-1.898438-22.785157-8.316407-5.53125-7.707031-6.519531-17.128906-2.722656-25.832031l.226563-.511719c4.335937-9.945312 14.171874-17.710937 26.3125-20.777343 3.53125-.890626 7.160156-.839844 10.5.140624l4.085937 1.195313c4.738281 1.382813 11.226563 5.917969 18.269531 12.753906 5.59375 5.4375 14.277344 6.074219 20.628906 1.511719 3.753907-2.699219 6.175782-6.886719 6.640626-11.484375.457031-4.613281-1.085938-9.214844-4.214844-12.585937l-.320313-.347657c-7.226562-7.75-16.316406-13.835937-26.289062-17.605469l-10.585938-4c-7.089843-2.683593-15.003906-3.699218-22.867187-2.941406l-21.585938 2.074219c-.664062.078125-1-.199219-1.027344-.265625-.007812-.085938.136719-.476562.6875-.765625l24.90625-13.105469c6.742188-3.550781 14.363282-5.890625 22.042969-6.769531 6.445313-.738281 12.933594-.183594 18.816407 1.582031l14.644531 4.414063c5.96875 2.988281 14.113281 1.113281 18.371093-4.316407 2.246094-2.863281 3.113282-6.375 2.378907-9.640624-.722657-3.214844-2.847657-5.847657-5.984375-7.417969l-18.128906-9.074219c-9.75-4.871094-21.527344-6.492188-33.1875-4.554688l-3.207032.53125c-6.105468 1.015626-11.976562 2.972657-17.4375 5.8125l-32.65625 16.972657c-.621094.324219-1.167968.175781-1.238281.175781 0-.046875.074219-.277344.386719-.511719l26.757812-20.15625c3.59375-2.703125 7.484375-5.132812 11.5625-7.214843l9.996094-5.097657c9.59375-4.898437 19.902344-8.425781 30.621094-10.476562l14.019531-2.683594c7.449219-1.429687 13.25-7.558594 13.480469-14.261719.125-3.597656-1.304688-6.867187-4.03125-9.207031-3.175782-2.730469-7.671875-3.792969-12.304688-2.917969l-13.023437 2.449219c-13.96875 2.628906-27.414063 7.175781-39.957031 13.511719l-12.179688 6.15625c-4.636719 2.34375-9.039062 5.113281-13.078125 8.230468l-20.265625 15.738282 27.023438-31.507813c2.085937-2.578125 3.023437-5.796875 2.582031-8.828125-.414063-2.800781-1.933594-5.222656-4.289063-6.832031-4.851562-3.308594-12.007812-2.21875-16.289062 2.476563-16.574219 18.179687-45.699219 50.046874-54.472656 59.171874-7.492188 7.796876-14.648438 29.585938-22.226563 52.652344-4.710937 14.351563-9.164063 27.910156-13.230469 36.382813-2.273437 4.734375-5.960937 8.253906-10.964844 10.46875-17.042968 7.546875-26.207031 23.96875-22.804687 40.863281l2.9375 14.554688c3.726563 18.5 21.65625 31.984374 41.710937 31.984374 1.222657 0 2.453126-.054687 3.6875-.152343.1875-.015625.371094-.046875.554688-.085938l60.550781-13.679687c6.574219-.601563 13.128907-1.792969 19.179688-3.46875l44.222656-8.382813 1.417969-.382812c14.980468-4.078125 30.476562-8.285157 39.042968-20.695313zm-41.148437 12.96875-45.34375 8.699219c-5.988281 1.648437-12.164063 2.761719-18.347656 3.3125-.179688.015625-.355469.046875-.53125.085937l-60.523438 13.675782c-17.390625 1.3125-33.476562-9.824219-36.625-25.460938l-2.9375-14.554687c-2.644531-13.128907 4.671875-25.976563 18.203125-31.96875 6.789063-3.007813 11.816406-7.828125 14.933594-14.320313 4.292969-8.945312 8.824219-22.742187 13.621094-37.347656 6.636718-20.210938 14.160156-43.125 20.390625-49.601562 8.839843-9.191407 38.015625-41.113282 54.621093-59.328126 1.570313-1.726562 4.308594-2.3125 5.867188-1.257812.5.34375.796875.8125.882812 1.386719.121094.828125-.199218 1.789062-.808593 2.542969l-33.675781 39.265624c-2.105469 2.460938-2.304688 5.929688-.476563 8.4375 1.078125 1.480469 2.707031 2.441407 4.582031 2.714844 2.011719.285156 4.097656-.269531 5.738282-1.527344l28.101562-21.660156c3.644531-2.808594 7.613281-5.304687 11.804688-7.421875l12.179687-6.15625c11.871094-6 24.597656-10.300781 37.824219-12.789062l13.027344-2.453125c2.199218-.421875 4.308593.003906 5.613281 1.125.867187.746094 1.289062 1.707031 1.25 2.859375-.101563 2.96875-3.242188 5.964843-6.992188 6.683593l-14.023437 2.683594c-11.464844 2.195313-22.488282 5.96875-32.75 11.207032l-9.996094 5.097656c-4.492188 2.292968-8.777344 4.96875-12.742188 7.953125l-26.757812 20.152343c-3.371094 2.539063-4.511719 6.785157-2.78125 10.332032.953125 1.957031 2.664062 3.425781 4.816406 4.136718 2.367188.78125 5.035156.550782 7.316406-.640624l32.65625-16.96875c4.71875-2.453126 9.785157-4.140626 15.066407-5.023438l3.207031-.53125c9.992188-1.664062 20.042969-.308594 28.292969 3.820312l18.132812 9.070313c.960938.484375 1.566407 1.179687 1.753907 2.019531.210937.921875-.097657 1.972656-.871094 2.949219-1.929688 2.472656-6.054688 3.433594-8.636719 2.023437-.242187-.136718-.5-.246093-.765625-.324218l-15.007812-4.519532c-6.917969-2.085937-14.550782-2.734374-22.027344-1.875-8.65625.992188-17.253906 3.632813-24.867188 7.640626l-24.902344 13.109374c-4.128906 2.171876-6.007812 6.839844-4.375 10.851563 1.425782 3.511719 5.09375 5.597656 9.203126 5.226563l21.582031-2.074219c6.664062-.640625 13.324219.207031 19.273437 2.460937l10.585938 4c8.832031 3.335938 16.878906 8.722656 23.539062 15.871094 1.597656 1.726562 2.386719 4.050781 2.152344 6.382812-.238281 2.347657-1.425781 4.40625-3.34375 5.785157-3.210938 2.304687-7.578125 1.988281-10.398438-.753907-8.191406-7.953124-15.453124-12.898437-21.589843-14.695312l-4.089844-1.195312c-4.714844-1.375-9.800781-1.449219-14.699219-.214844-14.527344 3.664062-26.375 13.132812-31.6875 25.324218l-.226562.507813c-4.886719 11.199219-3.5625 23.800781 3.550781 33.707031 6.417969 8.960938 18.410156 13.5 30.550781 11.550782l21.085938-3.371094c5.992187-.957032 11.628906-3.597656 15.886718-7.425782l4.695313-4.226562c2.550781-2.304688 6.863281-3 10.226563-1.667969 1.964843.78125 3.375 2.136719 3.859374 3.722657.394532 1.304687.140626 2.664062-.738281 3.933593l-7.976562 11.550781c-6.898438 9.980469-20.957031 13.800782-34.558594 17.496094zm0 0"/><path d="m398.367188 229.046875c-1.914063-1.101563-4.359376-.441406-5.464844 1.472656l-3.089844 5.386719c-2.246094 3.910156-4.832031 8.421875-6.289062 10.9375-1.109376 1.910156-.453126 4.359375 1.457031 5.46875.632812.363281 1.320312.535156 2 .535156 1.382812 0 2.726562-.714844 3.464843-1.996094 1.457032-2.523437 4.058594-7.046874 6.304688-10.964843l3.089844-5.375c1.105468-1.917969.445312-4.359375-1.472656-5.464844zm0 0"/><path d="m423.605469 106.480469c-.1875-.019531-.382813-.039063-.5625-.03125l-62.058594 1.152343c-6.574219-.742187-13.230469-.902343-19.484375-.480468l-45.003906-.734375-1.460938.089843c-15.503906.953126-31.53125 1.941407-42.421875 12.363282l-10.148437 9.703125c-2.898438 2.769531-4.300782 6.394531-3.949219 10.214843.375 4.09375 2.78125 7.878907 6.601563 10.386719 5.605468 3.679688 13.15625 3.9375 18.777343.648438l5.453125-3.195313c3.621094-2.121094 8.113282-3.179687 12.660156-2.96875l21.332032.957032c9.132812.414062 17.421875 5.539062 20.632812 12.753906 3.855469 8.664062 2.917969 18.085937-2.574218 25.863281l-.308594.441406c-6.261719 8.863281-17.464844 14.484375-29.96875 15.023438-3.640625.171875-7.175782-.625-10.261719-2.261719l-3.753906-1.996094c-4.363281-2.316406-9.796875-8.0625-15.3125-16.1875-4.390625-6.460937-12.757813-8.835937-19.902344-5.65625-4.222656 1.882813-7.433594 5.488282-8.820313 9.898438-1.390624 4.425781-.800781 9.246094 1.5625 13.160156l.253907.425781c5.511719 9.050781 13.183593 16.855469 22.1875 22.5625l9.5625 6.0625c6.398437 4.058594 13.933593 6.652344 21.792969 7.503907l21.566406 2.332031c.644531.070312.925781.398437.945312.472656-.011718.082031-.234375.433594-.828125.605469l-27.042969 7.804687c-7.316406 2.117188-15.25 2.867188-22.953124 2.167969-6.441407-.578125-12.707032-2.425781-18.105469-5.355469l-13.449219-7.285156c-5.246094-4.140625-13.597656-3.941406-18.859375.503906-2.78125 2.351563-4.34375 5.621094-4.285156 8.964844.0625 3.296875 1.605469 6.304687 4.363281 8.476563l15.921875 12.546874c8.558594 6.75 19.773437 10.722657 31.582031 11.175782l3.242188.125c6.207031.246094 12.324218-.488282 18.261718-2.164063l35.410157-10.019531c.671875-.183594 1.175781.0625 1.25.078125-.011719.050781-.128907.257813-.480469.425781l-30.28125 14.324219c-4.0625 1.917969-8.367188 3.511719-12.785156 4.726563l-10.816406 2.972656c-10.394532 2.855468-21.207032 4.242187-32.109376 4.066406l-14.265624-.210938c-.082032 0-.167969 0-.25 0-7.484376 0-14.265626 4.796876-15.835938 11.246094-.851562 3.5-.113281 6.988282 2.082031 9.832032 2.5625 3.320312 6.742188 5.265624 11.464844 5.351562l13.25.234375c14.199219.25 28.300781-1.484375 41.863281-5.15625l13.175782-3.5625c5.011718-1.355469 9.878906-3.175781 14.464843-5.414063l23.039063-11.3125-32.84375 25.394532c-2.566406 2.105468-4.132813 5.066406-4.308594 8.128906-.160156 2.824219.84375 5.503906 2.820312 7.550781 2.203126 2.277344 5.316407 3.4375 8.527344 3.4375 2.742188 0 5.558594-.84375 7.925782-2.570312 12.40625-9.007813 53.777343-39.011719 65.3125-46.929688 4.351562-2.988281 9.601562-9.433593 16.527343-20.285156 1.191407-1.863281.644531-4.335937-1.21875-5.523437-1.867187-1.1875-4.335937-.640626-5.523437 1.21875-6.15625 9.648437-10.972656 15.699218-14.308594 17.992187-11.621094 7.976563-53.066406 38.03125-65.492188 47.054687-1.894531 1.378907-4.695312 1.394532-6 .046876-.417968-.4375-.613281-.953126-.582031-1.539063.046875-.835937.558594-1.710937 1.304688-2.332031l40.921875-31.636719c2.5625-1.988281 3.457031-5.34375 2.171875-8.171875-.757813-1.667969-2.164063-2.941406-3.949219-3.585938-1.914062-.683593-4.066406-.558593-5.917969.339844l-31.90625 15.523438c-4.132812 2.011718-8.53125 3.65625-13.058593 4.886718l-13.175782 3.5625c-12.832031 3.476563-26.109375 5.136719-39.628906 4.875l-13.25-.234374c-2.253906-.039063-4.226562-.875-5.273438-2.242188-.699218-.902344-.914062-1.929688-.640624-3.050781.695312-2.847657 4.296874-5.132813 8.070312-5.132813h.128906l14.265625.210938c11.671875.167968 23.222657-1.296875 34.347657-4.351563l10.816406-2.96875c4.867187-1.335937 9.605468-3.089843 14.089844-5.214843l30.277343-14.324219c3.8125-1.800781 5.792969-5.734375 4.8125-9.550781-.539062-2.109376-1.914062-3.890626-3.878906-5.023438-2.164063-1.25-4.820313-1.554688-7.296875-.855469l-35.410156 10.019531c-5.121094 1.449219-10.421875 2.078126-15.777344 1.867188l-3.246094-.125c-10.121094-.394531-19.691406-3.753906-26.929687-9.464844l-15.925781-12.550781c-.84375-.664063-1.296876-1.472656-1.3125-2.332031-.019532-.945313.496093-1.910156 1.453124-2.71875 2.402344-2.027344 6.621094-2.136719 8.859376-.230469.21875.179687.445312.339844.6875.46875l13.785156 7.464844c6.351562 3.441406 13.683594 5.613281 21.195312 6.289062 8.699219.785157 17.636719-.070312 25.898438-2.453125l27.039062-7.804687c4.480469-1.289063 7.261719-5.484375 6.476563-9.742188-.6875-3.730469-3.882813-6.535156-7.953125-6.976562l-21.5625-2.332031c-6.648438-.71875-13.003906-2.902344-18.378906-6.308594l-9.558594-6.058594c-7.96875-5.050781-14.753906-11.957031-19.839844-20.300781-1.21875-2.015625-1.515625-4.457031-.8125-6.695313.707031-2.253906 2.285156-4.019531 4.445312-4.984375 3.585938-1.605469 7.8125-.417969 10.023438 2.835938 6.410156 9.449219 12.527344 15.761719 18.179688 18.761719l3.757812 1.996093c4.339844 2.300781 9.320312 3.394531 14.355469 3.1875 14.964843-.652343 28.480469-7.53125 36.164062-18.40625l.308594-.4375c7.050781-9.984375 8.296875-22.59375 3.347656-33.730469-4.480469-10.070312-15.308593-16.9375-27.585937-17.492187l-21.332032-.957031c-6.089843-.261719-12.128906 1.171875-17.0625 4.0625l-5.449218 3.1875c-2.972656 1.738281-7.328125 1.554687-10.351563-.433594-1.773437-1.160156-2.875-2.769531-3.027343-4.421875-.125-1.355469.398437-2.636719 1.515624-3.703125l10.148438-9.707031c8.773438-8.394531 23.320312-9.289063 37.386719-10.160157l1.152343-.082031 45.011719.734375c6.199219-.402344 12.460938-.242187 18.644531.46875.175782.015625.347657.027344.53125.023438l62.039063-1.15625c17.328125 2.246094 30.800781 16.402344 30.726563 32.34375l-.070313 14.847656c-.066406 13.390625-9.828125 24.496094-24.289063 27.625-7.257812 1.578125-13.152343 5.277344-17.519531 11-3.519531 4.613281-5.773437 8.03125-10.0625 15.25-1.128906 1.898438-.503906 4.351562 1.398438 5.484375 1.898437 1.125 4.351562.503906 5.476562-1.398437 4.15625-6.992188 6.210938-10.101563 9.546875-14.484376 3.183594-4.167968 7.507813-6.871093 12.855469-8.03125 18.21875-3.945312 30.515625-18.175781 30.59375-35.410156l.070313-14.84375c.074218-20-16.628907-37.726562-38.042969-40.335937zm0 0"/></g></svg>