<svg width="111" height="105" viewBox="0 0 112 106" fill="none" xmlns="http://www.w3.org/2000/svg">
<path d="M0.82428 52.4904V104.922H15.5162H30.2081V83.0756V61.2291H48.907H67.6056V51.034V40.8388H48.907H30.2081V32.1001V23.3613H51.5782H72.9481V11.7097V0.0580978H36.8863H0.82428V52.4904V52.4904Z" fill="white"/>
<path d="M88.2573 63.3181L96.5569 64.2122L92.306 74.4728L85.821 89.1129L97.5236 89.0371L91.6468 96.9021L86.0374 105.058L104.479 104.787L108.167 92.4928L111.824 79.7912L99.3475 79.1738L103.493 58.316L95.889 57.3316L95.8661 42.4961L92.3609 52.3347L88.2573 63.3181Z" fill="white"/>
<path d="M94.5324 31.9836C100.375 31.9836 105.111 26.8191 105.111 20.4484C105.111 14.0778 100.375 8.91334 94.5324 8.91334C88.6902 8.91334 83.9542 14.0778 83.9542 20.4484C83.9542 26.8191 88.6902 31.9836 94.5324 31.9836Z" fill="white"/>
</svg>
