<svg width="199" height="235" viewBox="0 0 199 235" fill="none" xmlns="http://www.w3.org/2000/svg">
<path d="M115.736 201.576V101.928C115.736 85.224 115.64 74.28 115.448 69.096C115.064 61.224 114.008 55.56 112.28 52.104C110.552 48.456 107.768 46.248 103.928 45.48C100.088 44.904 94.616 44.616 87.512 44.616C79.256 44.616 73.88 45 71.384 45.768V0.839985C73.112 0.647987 75.704 0.551989 79.16 0.551989H87.512C109.016 0.551989 125.624 2.27999 137.336 5.73599C149.24 8.99999 157.88 14.472 163.256 22.152C168.248 29.256 171.32 38.568 172.472 50.088C173.816 61.608 174.488 78.888 174.488 101.928C174.488 122.856 173.624 139.368 171.896 151.464C170.36 163.368 166.712 173.256 160.952 181.128L198.968 232.392V234.12H134.456L115.736 201.576ZM87.512 203.304C59.48 203.304 39.32 200.232 27.032 194.088C20.696 191.016 15.704 186.888 12.056 181.704C8.408 176.52 5.72 170.088 3.992 162.408C2.456 155.688 1.496 148.008 1.112 139.368C0.728001 130.536 0.536001 118.056 0.536001 101.928C0.536001 81.768 0.920001 66.312 1.688 55.56C2.648 44.808 4.856 35.784 8.312 28.488C12.152 20.616 18.008 14.568 25.88 10.344C33.752 6.11999 44.888 3.23999 59.288 1.70399V101.928C59.288 113.256 59.48 124.104 59.864 134.472C60.248 142.344 61.208 148.104 62.744 151.752C64.472 155.4 67.256 157.512 71.096 158.088C74.36 158.856 79.832 159.24 87.512 159.24C95.384 159.24 100.76 158.952 103.64 158.376V202.728C96.344 203.112 90.968 203.304 87.512 203.304Z" fill="white"/>
</svg>
